<svg xmlns="http://www.w3.org/2000/svg" viewBox="0 0 24 24" id="programming"><g><path fill="#fff" d="m23 17-1-5.5h-1V16l-1.7-5.5h4.2l-2-9h-19l-2 9h4.2L3 16v-4.5H2L1 17l.5 3.5-1 3h6l.5-2 4-5-1-.5-2.5 1.5 1.8-7h5.5l1.8 7L14 16l-1 .5 4 5 .5 2h6l-1-3L23 17zM5.5 16l.8-5.5h1.3L5.5 16zm10.9-5.5h1.3l.8 5.5-2.1-5.5z"></path><path fill="#cce7ff" d="M5 9.5h1.5l-.2 1h1.3l.4-1h1.5l-.2 1h5.5l-.3-1H16l.4 1h1.3l-.2-1H19l.3 1h4.2l-.4-2H.9l-.4 2h4.2z"></path><path fill="none" stroke="#1078ff" stroke-linecap="round" stroke-linejoin="round" stroke-miterlimit="10" d="M12.5 10.5h-1M5.5 4.5H6M8 4.5h.5M10.5 4.5h.5M13 4.5h.5M15.5 4.5h.5M18 4.5h.5M4.5 6.5H5M7 6.5h.5M9.5 6.5h.5M12 6.5h.5M14.5 6.5h.5M17 6.5h.5M19.5 6.5h.5M.5 10.5l2-9h19l2 9"></path><path fill="none" stroke="#1078ff" stroke-linecap="round" stroke-linejoin="round" stroke-miterlimit="10" d="m.5 23.5 1-3L1 17l1-5.5h1V16l2-6.5h1.5l-1 6.5L8 9.5h1.5l-2 8L10 16l1 .5-4 5-.5 2M23.5 23.5l-1-3L23 17l-1-5.5h-1V16l-2-6.5h-1.5l1 6.5L16 9.5h-1.5l2 8L14 16l-1 .5 4 5 .5 2"></path></g><path fill="none" d="M0 0h24v24H0z"></path></svg>